<svg
  xmlns="http://www.w3.org/2000/svg"
  viewBox="0 0 24 24"
  fill="none"
  stroke="#8B5CF6"
  stroke-width="2"
  stroke-linecap="round"
  stroke-linejoin="round"
>
  <!-- Eye -->
  <path d="M1 12s4-8 11-8 11 8 11 8-4 8-11 8-11-8-11-8" />
  
  <!-- Closed eye slash -->
  <line x1="3.5" y1="9" x2="20.5" y2="15" stroke-width="3" />
  
  <!-- Lock -->
  <g transform="translate(14,12) scale(0.4)">
    <path fill="#8B5CF6" d="M8 1a3 3 0 0 0-3 3v4H3a2 2 0 0 0-2 2v3a2 2 0 0 0 2 2h10a2 2 0 0 0 2-2v-3a2 2 0 0 0-2-2h-2V4a3 3 0 0 0-3-3z"/>
  </g>
</svg>